<svg width="24" height="24" viewBox="0 0 24 24" fill="none" xmlns="http://www.w3.org/2000/svg">
<path d="M2.9 7.1499C3.15 6.8999 3.446 6.7749 3.788 6.7749C4.12933 6.7749 4.425 6.8999 4.675 7.1499L12 14.4749L19.35 7.1249C19.5833 6.89157 19.875 6.7749 20.225 6.7749C20.575 6.7749 20.875 6.8999 21.125 7.1499C21.375 7.3999 21.5 7.6959 21.5 8.0379C21.5 8.37924 21.375 8.6749 21.125 8.9249L12.7 17.3249C12.6 17.4249 12.4917 17.4959 12.375 17.5379C12.2583 17.5792 12.1333 17.5999 12 17.5999C11.8667 17.5999 11.7417 17.5792 11.625 17.5379C11.5083 17.4959 11.4 17.4249 11.3 17.3249L2.875 8.8999C2.64167 8.66657 2.525 8.37924 2.525 8.0379C2.525 7.6959 2.65 7.3999 2.9 7.1499Z" fill="black"/>
</svg>
