<svg width="139" height="41" viewBox="0 0 139 41" fill="none" xmlns="http://www.w3.org/2000/svg">
<g clip-path="url(#clip0_335_4376)">
<path d="M133.964 18.6516C129.577 12.1503 122.959 6.4399 115.329 2.57144C107.835 -1.22672 99.8335 -0.793175 94.4542 3.71181C90.0675 7.38123 88.4712 12.9813 90.1877 18.6956C91.1113 21.7738 92.8724 24.3409 95.251 26.1934C95.1052 26.3924 94.9581 26.5941 94.807 26.7964C94.3879 27.3627 93.9642 27.9328 93.5385 28.4991C89.8133 27.161 86.0223 26.355 81.4221 27.6241C78.8963 28.3224 77.0498 30.3745 76.4842 33.1065C75.9508 35.6803 76.7121 38.1587 78.4661 39.5743C79.1308 40.1084 80.3008 40.7666 82.0474 40.7666C83.1215 40.7666 84.411 40.5163 85.9376 39.8391C89.3869 38.3059 92.1741 35.4339 94.6224 32.3853C94.9791 32.5259 95.3404 32.6723 95.7003 32.8195C101.878 35.317 108.876 38.1515 120.264 35.0772C120.507 35.0109 120.749 34.9413 120.984 34.8677C124.003 38.1804 127.246 40.7324 131.037 40.7324C131.085 40.7324 131.133 40.7324 131.181 40.7292C135.141 40.6628 137.895 38.5299 138.734 34.8749C139.719 30.5985 137.936 24.5321 133.964 18.6516ZM84.6218 36.8758C82.82 37.6772 81.3564 37.7396 80.5031 37.0519C79.7201 36.4193 79.3818 35.1002 79.6577 33.7648C79.9736 32.246 80.9557 31.1168 82.2866 30.7496C83.5806 30.3936 84.8051 30.2379 85.9895 30.2379C87.857 30.2379 89.626 30.6209 91.4095 31.1976C89.3797 33.6288 87.1844 35.7394 84.6218 36.8758ZM135.575 34.1504C135.067 36.3536 133.612 37.4453 131.126 37.4894H131.041C128.698 37.4894 126.4 35.8274 124.147 33.4961C126.923 31.8893 128.625 29.558 128.872 26.87C129.144 23.9356 127.602 21.2148 124.948 19.9424C121.867 18.4644 118.065 19.2881 114.545 22.1298L116.707 24.5498C119.174 22.5936 121.664 21.965 123.547 22.8656C124.966 23.5468 125.79 25.0018 125.643 26.5724C125.481 28.348 124.135 29.918 121.926 31.0143C121.061 29.9817 120.197 28.8926 119.345 27.8146C118.458 26.7005 117.583 25.5976 116.707 24.5498L114.241 26.6565C115.096 27.6793 115.954 28.7599 116.804 29.83C117.417 30.6058 118.035 31.3815 118.656 32.1468C108.776 34.6141 102.749 32.1757 96.9176 29.8162C96.8361 29.782 96.7553 29.7492 96.6745 29.7163C96.9248 29.3852 97.1672 29.0542 97.4102 28.727C97.6165 28.4479 97.8215 28.1726 98.0284 27.8961C98.8915 28.304 99.8079 28.6351 100.772 28.8853C105.488 30.1203 110.678 29.2197 114.241 26.6565L112.06 24.2339C109.28 26.0975 105.279 26.7156 101.587 25.7487C101.138 25.6311 100.62 25.4688 100.068 25.2481C102.128 22.7184 104.146 20.8325 106.224 20.8246H106.239C108.133 20.8246 110.093 22.2257 112.06 24.2339L114.545 22.1298C111.975 19.4609 109.306 17.5815 106.239 17.5815H106.213C102.68 17.5966 99.9064 20.2472 97.2158 23.623C95.6268 22.3913 94.1264 20.5415 93.2922 17.7654C91.9606 13.3307 93.1739 9.01033 96.5313 6.1975C99.9583 3.33278 106.309 1.63405 113.861 5.46178C129.571 13.4299 137.097 27.5394 135.575 34.1504Z" fill="#6B4D9F"/>
<path d="M116.708 24.5498L114.24 26.6572L112.06 24.2339L114.546 22.1305L116.708 24.5498Z" fill="#EBE211"/>
<path d="M5.18619 36.075C3.47103 36.075 2.17761 35.7938 1.30656 35.2315C0.435521 34.6685 0 33.7574 0 32.4942C0 31.6843 0.202324 31.0195 0.606971 30.4986C1.01162 29.977 1.58115 29.5894 2.3149 29.3352C3.04865 29.0816 3.89604 28.9542 4.85708 28.9542C5.44632 28.9542 5.96132 28.9995 6.40013 29.0882C6.83959 29.1776 7.23701 29.2708 7.59371 29.3654V31.2179C7.31912 31.1226 6.96966 31.0366 6.54464 30.961C6.11898 30.8861 5.7071 30.8474 5.30968 30.8474C4.41762 30.8474 3.75613 30.9709 3.32323 31.2179C2.89165 31.4649 2.67553 31.8833 2.67553 32.4739C2.67553 33.0362 2.88771 33.4408 3.31338 33.6871C3.73839 33.9341 4.3493 34.0583 5.1448 34.0583C5.62499 34.0583 6.0881 34.0136 6.53413 33.9249C6.98017 33.8356 7.3743 33.695 7.7172 33.5032L7.30599 34.3053C7.25081 34.1411 7.20285 33.9762 7.16213 33.8113C7.12074 33.6471 7.08987 33.475 7.06885 33.2969C7.04848 33.1183 7.03469 32.9159 7.02812 32.69C7.02089 32.464 7.01761 32.1855 7.01761 31.8557V29.0363C7.01761 28.3374 6.90791 27.8086 6.6885 27.4519C6.4691 27.0952 6.14657 26.8587 5.72156 26.7418C5.29589 26.6255 4.76774 26.5671 4.13647 26.5671C3.56037 26.5671 3.00464 26.6255 2.46992 26.7418C1.93456 26.8587 1.50232 26.9927 1.17256 27.1432H0.96695V24.8591C1.46093 24.6805 2.01667 24.5464 2.63415 24.4571C3.25163 24.3691 3.86911 24.3238 4.48659 24.3238C5.2545 24.3238 5.96461 24.3927 6.61625 24.53C7.26789 24.6673 7.83413 24.9071 8.31432 25.25C8.79451 25.5935 9.16828 26.0764 9.4363 26.7004C9.70365 27.3258 9.83766 28.1305 9.83766 29.1184V31.7119C9.83766 32.0009 9.84029 32.3609 9.84751 32.7931C9.85408 33.2247 9.87116 33.6471 9.89875 34.0583C9.92634 34.4702 9.96772 34.7993 10.0222 35.0463L9.9605 35.2111C9.4941 35.3892 8.98961 35.5435 8.44833 35.6742C7.90573 35.805 7.35394 35.9035 6.79164 35.9725C6.22868 36.0408 5.69331 36.075 5.18619 36.075Z" fill="#6B4D9F"/>
<path d="M12.4097 24.5911H20.1479V26.8968H12.4097V24.5911ZM17.0815 20.1873V31.6915C17.0815 32.3911 17.2464 32.8923 17.5755 33.1938C17.9046 33.496 18.4117 33.6464 19.0982 33.6464C19.359 33.6464 19.6158 33.6195 19.87 33.5643C20.1236 33.5098 20.3463 33.4408 20.5387 33.3587H20.724V35.6638C20.477 35.7597 20.1893 35.8385 19.8595 35.9002C19.5304 35.962 19.1599 35.9929 18.7487 35.9929C17.7739 35.9929 16.9475 35.849 16.2683 35.5606C15.589 35.2729 15.0747 34.8302 14.7246 34.2337C14.3751 33.6366 14.1997 32.8647 14.1997 27.5137V20.1873H17.0815Z" fill="#6B4D9F"/>
<path d="M23.9756 35.8279V23.6649C23.9756 23.3903 23.9684 23.0375 23.9546 22.6053C23.9415 22.1731 23.9244 21.7507 23.9034 21.3395C23.883 20.9276 23.8383 20.5985 23.77 20.3515L23.8311 20.1866H26.8568V25.9496L26.2393 25.003C26.6643 24.8112 27.1274 24.6496 27.6286 24.5188C28.1292 24.3894 28.7092 24.3237 29.3674 24.3237C30.0394 24.3237 30.6674 24.4091 31.2507 24.5812C31.8341 24.7533 32.3418 25.0332 32.7734 25.4247C33.2057 25.8162 33.5453 26.3299 33.7923 26.9684C34.0393 27.6062 34.1628 28.3985 34.1628 29.3457V35.8279H31.2816V29.4896C31.2816 28.7624 31.1719 28.1968 30.9525 27.7921C30.7324 27.3868 30.4276 27.1057 30.0368 26.9474C29.6453 26.7897 29.1894 26.7109 28.6678 26.7109C28.3801 26.7109 28.0812 26.7385 27.7725 26.793C27.4637 26.8482 27.176 26.9106 26.908 26.9783C26.6407 27.0479 26.4318 27.1096 26.2807 27.1642L26.8568 25.8674V35.8279H23.9756Z" fill="#6B4D9F"/>
<path d="M42.9918 36.075C41.2767 36.075 39.9833 35.7938 39.1122 35.2315C38.2412 34.6685 37.8057 33.7574 37.8057 32.4942C37.8057 31.6843 38.008 31.0195 38.4126 30.4986C38.8173 29.977 39.3868 29.5894 40.1206 29.3352C40.8543 29.0816 41.7017 28.9542 42.6627 28.9542C43.252 28.9542 43.767 28.9995 44.2058 29.0882C44.6453 29.1776 45.0427 29.2708 45.3994 29.3654V31.2179C45.1254 31.1226 44.7753 31.0366 44.3503 30.961C43.9246 30.8861 43.5134 30.8474 43.1153 30.8474C42.2233 30.8474 41.5618 30.9709 41.1296 31.2179C40.6973 31.4649 40.4812 31.8833 40.4812 32.4739C40.4812 33.0362 40.6934 33.4408 41.119 33.6871C41.5441 33.9341 42.155 34.0583 42.9505 34.0583C43.4307 34.0583 43.8938 34.0136 44.3398 33.9249C44.7858 33.8356 45.18 33.695 45.5235 33.5032L45.1116 34.3053C45.0565 34.1411 45.0085 33.9762 44.9678 33.8113C44.9264 33.6471 44.8955 33.475 44.8752 33.2969C44.8541 33.1183 44.8404 32.9159 44.8338 32.69C44.8266 32.464 44.8233 32.1855 44.8233 31.8557V29.0363C44.8233 28.3374 44.7136 27.8086 44.4942 27.4519C44.2748 27.0952 43.9522 26.8587 43.5272 26.7418C43.1016 26.6255 42.5734 26.5671 41.9421 26.5671C41.366 26.5671 40.8103 26.6255 40.2756 26.7418C39.7402 26.8587 39.308 26.9927 38.9789 27.1432H38.7726V24.8591C39.2666 24.6805 39.8223 24.5464 40.4398 24.4571C41.0573 24.3691 41.6748 24.3238 42.2923 24.3238C43.0602 24.3238 43.7703 24.3927 44.4219 24.53C45.0736 24.6673 45.6398 24.9071 46.12 25.25C46.6002 25.5935 46.9739 26.0764 47.242 26.7004C47.5093 27.3258 47.6433 28.1305 47.6433 29.1184V31.7119C47.6433 32.0009 47.646 32.3609 47.6532 32.7931C47.6597 33.2247 47.6768 33.6471 47.7044 34.0583C47.732 34.4702 47.7734 34.7993 47.8279 35.0463L47.7668 35.2111C47.2998 35.3892 46.7953 35.5435 46.254 35.6742C45.7114 35.805 45.1596 35.9035 44.5973 35.9725C44.0343 36.0408 43.499 36.075 42.9918 36.075Z" fill="#6B4D9F"/>
<path d="M56.369 36.075C54.6539 36.075 53.3605 35.7938 52.4894 35.2315C51.6177 34.6685 51.1829 33.7574 51.1829 32.4942C51.1829 31.6843 51.3852 31.0195 51.7898 30.4986C52.1945 29.977 52.764 29.5894 53.4978 29.3352C54.2315 29.0816 55.0789 28.9542 56.0399 28.9542C56.6292 28.9542 57.1442 28.9995 57.583 29.0882C58.0225 29.1776 58.4199 29.2708 58.7766 29.3654V31.2179C58.5026 31.1226 58.1525 31.0366 57.7275 30.961C57.3018 30.8861 56.89 30.8474 56.4925 30.8474C55.6005 30.8474 54.939 30.9709 54.5061 31.2179C54.0745 31.4649 53.8577 31.8833 53.8577 32.4739C53.8577 33.0362 54.0706 33.4408 54.4962 33.6871C54.9213 33.9341 55.5315 34.0583 56.3277 34.0583C56.8079 34.0583 57.271 34.0136 57.717 33.9249C58.1624 33.8356 58.5572 33.695 58.9001 33.5032L58.4888 34.3053C58.4337 34.1411 58.3857 33.9762 58.3443 33.8113C58.3036 33.6471 58.2727 33.475 58.2517 33.2969C58.2313 33.1183 58.2175 32.9159 58.211 32.69C58.2038 32.464 58.2005 32.1855 58.2005 31.8557V29.0363C58.2005 28.3374 58.0908 27.8086 57.8714 27.4519C57.652 27.0952 57.3294 26.8587 56.9038 26.7418C56.4787 26.6255 55.9506 26.5671 55.3193 26.5671C54.7432 26.5671 54.1875 26.6255 53.6521 26.7418C53.1174 26.8587 52.6852 26.9927 52.3554 27.1432H52.1498V24.8591C52.6438 24.6805 53.1995 24.5464 53.817 24.4571C54.4345 24.3691 55.052 24.3238 55.6688 24.3238C56.4374 24.3238 57.1475 24.3927 57.7991 24.53C58.4507 24.6673 59.017 24.9071 59.4972 25.25C59.9774 25.5935 60.3511 26.0764 60.6192 26.7004C60.8865 27.3258 61.0199 28.1305 61.0199 29.1184V31.7119C61.0199 32.0009 61.0231 32.3609 61.0304 32.7931C61.0369 33.2247 61.054 33.6471 61.0816 34.0583C61.1092 34.4702 61.1506 34.7993 61.2051 35.0463L61.144 35.2111C60.677 35.3892 60.1725 35.5435 59.6312 35.6742C59.0886 35.805 58.5368 35.9035 57.9738 35.9725C57.4115 36.0408 56.8762 36.075 56.369 36.075Z" fill="#6B4D9F"/>
<path d="M65.3626 35.8279V28.6455C65.3626 28.3709 65.3554 28.0175 65.3416 27.5852C65.3284 27.1536 65.3114 26.728 65.2903 26.3102C65.27 25.8911 65.2253 25.558 65.157 25.3111L65.2181 25.1468C65.6024 25.0095 66.0523 24.8867 66.5667 24.777C67.081 24.6673 67.623 24.5812 68.1925 24.5188C68.7614 24.4571 69.3342 24.4269 69.9109 24.4269C70.1579 24.4269 70.4253 24.4334 70.7137 24.4479C71.0014 24.4604 71.2891 24.488 71.5781 24.53V26.8751H71.3922C71.1866 26.8206 70.9534 26.7825 70.6926 26.7621C70.4318 26.7418 70.1783 26.7313 69.9313 26.7313C69.4918 26.7313 69.0603 26.7654 68.6346 26.835C68.2096 26.9027 67.8457 26.9855 67.5441 27.082L67.9764 26.4232C68.1544 26.793 68.2437 27.4315 68.2437 28.3374V35.8279H65.3626Z" fill="#6B4D9F"/>
<path d="M65.5594 10.4407H63.2313V10.645C63.2997 10.8223 63.3575 11.0089 63.4048 11.2066C63.4527 11.4043 63.4764 11.6527 63.4764 11.9522C63.4764 12.5644 63.3128 13.0446 62.9863 13.3915C62.6598 13.739 62.1626 13.9124 61.4958 13.9124H14.9956C14.7229 13.9124 14.3761 13.9051 13.9537 13.892C13.7238 13.8848 13.4978 13.8736 13.2699 13.8644V1.25072H10.2679L10.2068 1.41495C10.2744 1.65997 10.3217 1.98973 10.3493 2.40489C10.3769 2.82004 10.3933 3.23914 10.4006 3.66087C10.4071 4.08325 10.4111 4.43009 10.4111 4.70205V16.7712H11.5442H13.2699H61.3323C62.244 16.7712 63.0376 16.5978 63.7115 16.2509C64.3848 15.9034 64.9025 15.393 65.2631 14.719C65.6238 14.0451 65.8044 13.2246 65.8044 12.2583C65.8044 11.8635 65.7808 11.5167 65.7328 11.2165C65.6848 10.9176 65.627 10.6588 65.5594 10.4407Z" fill="#6B4D9F"/>
<path d="M68.6629 1.25121L68.6018 1.41478C68.6695 1.6598 68.7174 1.99022 68.745 2.40472C68.7719 2.82053 68.789 3.23897 68.7956 3.6607C68.8022 4.08308 68.8061 4.43058 68.8061 4.70254V16.7717H71.6649V1.25121H68.6629Z" fill="#6B4D9F"/>
<path d="M7.22555 17.1902C7.21175 16.7613 7.20518 16.4105 7.20518 16.1386V9.01125H4.34572V16.4447C4.34572 17.0195 4.38251 17.4845 4.45542 17.8419C4.29908 17.8754 4.13551 17.9069 3.95815 17.9358C3.53577 18.0035 3.10747 18.0376 2.6713 18.0376C2.42627 18.0376 2.17468 18.0278 1.91587 18.0068C1.65771 17.9864 1.42582 17.949 1.22153 17.8951H1.0376V20.2231C1.32335 20.2639 1.60975 20.2908 1.8955 20.3046C2.18125 20.3177 2.44664 20.325 2.69166 20.325C3.26381 20.325 3.83203 20.2941 4.39696 20.233C4.96254 20.1719 5.49989 20.0865 6.01029 19.9781C6.5207 19.8684 6.96673 19.7462 7.34773 19.6102L7.40948 19.4467C7.34116 19.2017 7.29715 18.8712 7.27679 18.4567C7.25576 18.0409 7.23934 17.6192 7.22555 17.1902Z" fill="#6B4D9F"/>
<path d="M67.8086 7.25592L66.0363 8.99078L64.2476 7.25592L66.0343 5.52303L67.8086 7.25592Z" fill="#E8E740"/>
<path d="M66.0344 5.52303L64.2483 7.25592L62.4734 5.52303L64.2601 3.79014L66.0344 5.52303Z" fill="#E8E740"/>
<path d="M64.2476 7.25592L62.4752 8.99078L60.6865 7.25592L62.4733 5.52303L64.2476 7.25592Z" fill="#EBE211"/>
</g>
<defs>
<clipPath id="clip0_335_4376">
<rect width="139" height="40.7666" fill="white" transform="matrix(1 0 0 -1 0 40.7666)"/>
</clipPath>
</defs>
</svg>
