<svg width="22" height="22" viewBox="0 0 22 22" fill="none" xmlns="http://www.w3.org/2000/svg">
<path d="M13.6077 18.3332H5.95898C4.6949 18.3332 3.66732 17.3057 3.66732 16.0416C3.66732 14.7775 4.6949 13.7499 5.95898 13.7499H12.3757C14.1448 13.7499 15.584 12.3108 15.584 10.5416C15.584 8.77242 14.1448 7.33325 12.3757 7.33325H7.91973C7.58309 7.99314 7.16621 8.60892 6.67857 9.16658H12.3757C13.1337 9.16658 13.7507 9.7835 13.7507 10.5416C13.7507 11.2997 13.1337 11.9166 12.3757 11.9166H5.95898C3.68473 11.9166 1.83398 13.7673 1.83398 16.0416C1.83398 18.3158 3.68473 20.1666 5.95898 20.1666H14.7526C14.3028 19.6008 13.9187 18.9857 13.6077 18.3332ZM4.58398 1.83325C3.06782 1.83325 1.83398 3.06709 1.83398 4.58325C1.83398 7.50558 4.58398 9.16658 4.58398 9.16658C4.58398 9.16658 7.33398 7.50467 7.33398 4.58325C7.33398 3.06709 6.10015 1.83325 4.58398 1.83325ZM4.58398 5.95825C4.40336 5.95819 4.22451 5.92255 4.05765 5.85338C3.8908 5.7842 3.7392 5.68283 3.61152 5.55506C3.48384 5.4273 3.38258 5.27564 3.31351 5.10873C3.24444 4.94183 3.20892 4.76296 3.20898 4.58233C3.20904 4.40171 3.24468 4.22286 3.31386 4.056C3.38304 3.88915 3.48441 3.73755 3.61217 3.60987C3.73994 3.48219 3.8916 3.38093 4.0585 3.31186C4.2254 3.24279 4.40427 3.20727 4.5849 3.20734C4.9497 3.20746 5.2995 3.35249 5.55736 3.61052C5.81523 3.86856 5.96002 4.21846 5.9599 4.58325C5.95978 4.94805 5.81475 5.29785 5.55671 5.55571C5.29868 5.81358 4.94878 5.95837 4.58398 5.95825Z" fill="#727272"/>
<path d="M17.416 12.8333C15.8998 12.8333 14.666 14.0671 14.666 15.5833C14.666 18.5056 17.416 20.1666 17.416 20.1666C17.416 20.1666 20.166 18.5047 20.166 15.5833C20.166 14.0671 18.9322 12.8333 17.416 12.8333ZM17.416 16.9583C17.2354 16.9582 17.0565 16.9226 16.8897 16.8534C16.7228 16.7842 16.5712 16.6828 16.4436 16.5551C16.3159 16.4273 16.2146 16.2756 16.1455 16.1087C16.0765 15.9418 16.041 15.763 16.041 15.5823C16.0411 15.4017 16.0767 15.2229 16.1459 15.056C16.2151 14.8892 16.3164 14.7376 16.4442 14.6099C16.572 14.4822 16.7236 14.3809 16.8905 14.3119C17.0574 14.2428 17.2363 14.2073 17.4169 14.2073C17.7817 14.2075 18.1315 14.3525 18.3894 14.6105C18.6473 14.8686 18.7921 15.2185 18.7919 15.5833C18.7918 15.948 18.6468 16.2979 18.3887 16.5557C18.1307 16.8136 17.7808 16.9584 17.416 16.9583Z" fill="#727272"/>
</svg>
