<svg width="24" height="24" viewBox="0 0 24 24" fill="none" xmlns="http://www.w3.org/2000/svg">
<path d="M8.5 4.28595H6.16667C5.85725 4.28595 5.5605 4.42141 5.34171 4.66253C5.12292 4.90365 5 5.23067 5 5.57166V19.7145C5 20.0555 5.12292 20.3825 5.34171 20.6237C5.5605 20.8648 5.85725 21.0002 6.16667 21.0002H17.8333C18.1428 21.0002 18.4395 20.8648 18.6583 20.6237C18.8771 20.3825 19 20.0555 19 19.7145V5.57166C19 5.23067 18.8771 4.90365 18.6583 4.66253C18.4395 4.42141 18.1428 4.28595 17.8333 4.28595H15.5" stroke="black" stroke-width="1.5" strokeLinecap="round" stroke-linejoin="round"/>
<path d="M8.50098 9.42857L15.501 17.1429M15.501 9.42857L8.50098 17.1429M9.66764 3H14.3343C14.6437 3 14.9405 3.13546 15.1593 3.37658C15.3781 3.6177 15.501 3.94472 15.501 4.28571C15.501 4.62671 15.3781 4.95373 15.1593 5.19485C14.9405 5.43597 14.6437 5.57143 14.3343 5.57143H9.66764C9.35822 5.57143 9.06148 5.43597 8.84269 5.19485C8.62389 4.95373 8.50098 4.62671 8.50098 4.28571C8.50098 3.94472 8.62389 3.6177 8.84269 3.37658C9.06148 3.13546 9.35822 3 9.66764 3V3Z" stroke="black" stroke-width="1.5" strokeLinecap="round" stroke-linejoin="round"/>
</svg>
