<svg width="64" height="64" viewBox="0 0 64 64" fill="none" xmlns="http://www.w3.org/2000/svg">
<path d="M52.303 8.563C53.24 8.563 54 7.74 54 6.729V3.833C54 2.82 53.24 2 52.303 2H11.697C10.759 2 10 2.82 10 3.833V6.729C10 7.74 10.759 8.562 11.697 8.562H12.75V55.437H11.697C10.759 55.437 10 56.257 10 57.27V60.165C10 61.178 10.759 62 11.697 62H52.302C53.24 62 54 61.178 54 60.165V57.27C54 56.257 53.24 55.437 52.303 55.437H51.25V8.563H52.303ZM14.583 55.438V8.563H16.307C15.862 8.563 15.5 8.898 15.5 9.312V11.562C15.5 11.976 15.858 12.309 16.302 12.312C16.302 20.601 17.63 28.657 27.234 31.433L27.708 31.583C28.123 31.715 28.62 31.871 28.874 32C28.62 32.127 28.129 32.283 27.716 32.413L27.263 32.558C17.631 35.344 16.303 43.399 16.303 51.688C15.86 51.691 15.501 52.025 15.501 52.437V54.687C15.501 55.101 15.862 55.438 16.308 55.438H14.583ZM35.746 34.205L36.24 34.361C43.046 36.329 45.703 40.806 45.857 50.75H32.816C32.685 46.126 32.357 34.317 32.357 32C32.357 31.215 33.809 30.114 34.477 29.721C37.296 28.056 40.922 24.762 40.922 21.334H23.076C23.076 24.762 26.702 28.056 29.521 29.721C30.187 30.115 31.641 31.215 31.641 32C31.641 34.378 31.314 46.138 31.183 50.75H18.143C18.296 40.809 20.956 36.33 27.788 34.353L28.257 34.206C29.57 33.792 30.81 33.4 30.81 32.001C30.81 30.6 29.566 30.207 28.247 29.793L27.759 29.638C20.954 27.67 18.297 23.194 18.144 13.251H45.859C45.705 23.194 43.046 27.673 36.216 29.647L35.759 29.792C34.439 30.206 33.192 30.599 33.192 32.001C33.19 33.399 34.432 33.791 35.746 34.205ZM49.416 55.438H47.694C48.138 55.438 48.5 55.101 48.5 54.687V52.437C48.5 52.024 48.14 51.691 47.697 51.689C47.697 43.399 46.369 35.342 36.765 32.566L36.285 32.414C35.873 32.284 35.38 32.128 35.126 32.001C35.381 31.872 35.879 31.716 36.295 31.584L36.738 31.443C46.369 28.659 47.697 20.603 47.697 12.313C48.139 12.311 48.5 11.977 48.5 11.562V9.312C48.5 8.898 48.139 8.563 47.694 8.563H49.416V55.438Z" fill="#4B4B4B"/>
</svg>
