<svg width="42" height="42" viewBox="0 0 42 42" fill="none" xmlns="http://www.w3.org/2000/svg">
<path d="M10.9375 5.25C9.42908 5.25 7.98244 5.84922 6.91583 6.91583C5.84922 7.98244 5.25 9.42908 5.25 10.9375V31.0625C5.25 32.5709 5.84922 34.0176 6.91583 35.0842C7.98244 36.1508 9.42908 36.75 10.9375 36.75H21.0385C20.514 35.9319 20.097 35.0496 19.7978 34.125H10.9375C10.1253 34.125 9.34632 33.8023 8.77199 33.228C8.19766 32.6537 7.875 31.8747 7.875 31.0625V10.9375C7.875 9.247 9.247 7.875 10.9375 7.875H31.0625C32.753 7.875 34.125 9.247 34.125 10.9375V19.7978C35.0496 20.097 35.9319 20.514 36.75 21.0385V10.9375C36.75 9.42908 36.1508 7.98244 35.0842 6.91583C34.0176 5.84922 32.5709 5.25 31.0625 5.25H10.9375ZM30.625 19.25C30.891 19.25 31.1535 19.2588 31.416 19.2763C31.4915 19.0776 31.5175 18.8635 31.4919 18.6525C31.4662 18.4415 31.3896 18.24 31.2687 18.0652C31.1478 17.8903 30.9862 17.7476 30.7979 17.6491C30.6095 17.5507 30.4 17.4995 30.1875 17.5H22.3125C21.9644 17.5 21.6306 17.6383 21.3844 17.8844C21.1383 18.1306 21 18.4644 21 18.8125C21 19.1606 21.1383 19.4944 21.3844 19.7406C21.6306 19.9867 21.9644 20.125 22.3125 20.125H26.243C27.6312 19.5456 29.1208 19.2481 30.625 19.25ZM11.8125 10.5C11.4644 10.5 11.1306 10.6383 10.8844 10.8844C10.6383 11.1306 10.5 11.4644 10.5 11.8125C10.5 12.1606 10.6383 12.4944 10.8844 12.7406C11.1306 12.9867 11.4644 13.125 11.8125 13.125H30.1875C30.5356 13.125 30.8694 12.9867 31.1156 12.7406C31.3617 12.4944 31.5 12.1606 31.5 11.8125C31.5 11.4644 31.3617 11.1306 31.1156 10.8844C30.8694 10.6383 30.5356 10.5 30.1875 10.5H11.8125ZM10.5 18.8125C10.5 18.2954 10.6018 17.7834 10.7997 17.3057C10.9976 16.828 11.2876 16.3939 11.6533 16.0283C12.0189 15.6626 12.453 15.3726 12.9307 15.1747C13.4084 14.9768 13.9204 14.875 14.4375 14.875C14.9546 14.875 15.4666 14.9768 15.9443 15.1747C16.422 15.3726 16.8561 15.6626 17.2217 16.0283C17.5874 16.3939 17.8774 16.828 18.0753 17.3057C18.2732 17.7834 18.375 18.2954 18.375 18.8125C18.375 19.8568 17.9602 20.8583 17.2217 21.5967C16.4833 22.3352 15.4818 22.75 14.4375 22.75C13.3932 22.75 12.3917 22.3352 11.6533 21.5967C10.9148 20.8583 10.5 19.8568 10.5 18.8125ZM14.4375 17.5C14.0894 17.5 13.7556 17.6383 13.5094 17.8844C13.2633 18.1306 13.125 18.4644 13.125 18.8125C13.125 19.1606 13.2633 19.4944 13.5094 19.7406C13.7556 19.9867 14.0894 20.125 14.4375 20.125C14.7856 20.125 15.1194 19.9867 15.3656 19.7406C15.6117 19.4944 15.75 19.1606 15.75 18.8125C15.75 18.4644 15.6117 18.1306 15.3656 17.8844C15.1194 17.6383 14.7856 17.5 14.4375 17.5ZM14.4375 24.5C13.3932 24.5 12.3917 24.9148 11.6533 25.6533C10.9148 26.3917 10.5 27.3932 10.5 28.4375C10.5 29.4818 10.9148 30.4833 11.6533 31.2217C12.3917 31.9602 13.3932 32.375 14.4375 32.375C15.4818 32.375 16.4833 31.9602 17.2217 31.2217C17.9602 30.4833 18.375 29.4818 18.375 28.4375C18.375 27.3932 17.9602 26.3917 17.2217 25.6533C16.4833 24.9148 15.4818 24.5 14.4375 24.5ZM13.125 28.4375C13.125 28.0894 13.2633 27.7556 13.5094 27.5094C13.7556 27.2633 14.0894 27.125 14.4375 27.125C14.7856 27.125 15.1194 27.2633 15.3656 27.5094C15.6117 27.7556 15.75 28.0894 15.75 28.4375C15.75 28.7856 15.6117 29.1194 15.3656 29.3656C15.1194 29.6117 14.7856 29.75 14.4375 29.75C14.0894 29.75 13.7556 29.6117 13.5094 29.3656C13.2633 29.1194 13.125 28.7856 13.125 28.4375ZM40.25 30.625C40.25 28.0723 39.2359 25.6241 37.4309 23.8191C35.6259 22.0141 33.1777 21 30.625 21C28.0723 21 25.6241 22.0141 23.8191 23.8191C22.0141 25.6241 21 28.0723 21 30.625C21 33.1777 22.0141 35.6259 23.8191 37.4309C25.6241 39.2359 28.0723 40.25 30.625 40.25C33.1777 40.25 35.6259 39.2359 37.4309 37.4309C39.2359 35.6259 40.25 33.1777 40.25 30.625ZM31.5 31.5L31.5018 35.8803C31.5018 36.1123 31.4096 36.3349 31.2455 36.499C31.0814 36.6631 30.8588 36.7553 30.6268 36.7553C30.3947 36.7553 30.1721 36.6631 30.008 36.499C29.8439 36.3349 29.7518 36.1123 29.7518 35.8803V31.5H25.368C25.1359 31.5 24.9134 31.4078 24.7493 31.2437C24.5852 31.0796 24.493 30.8571 24.493 30.625C24.493 30.3929 24.5852 30.1704 24.7493 30.0063C24.9134 29.8422 25.1359 29.75 25.368 29.75H29.75V25.375C29.75 25.1429 29.8422 24.9204 30.0063 24.7563C30.1704 24.5922 30.3929 24.5 30.625 24.5C30.8571 24.5 31.0796 24.5922 31.2437 24.7563C31.4078 24.9204 31.5 25.1429 31.5 25.375V29.75H35.8698C36.1018 29.75 36.3244 29.8422 36.4885 30.0063C36.6526 30.1704 36.7448 30.3929 36.7448 30.625C36.7448 30.8571 36.6526 31.0796 36.4885 31.2437C36.3244 31.4078 36.1018 31.5 35.8698 31.5H31.5Z" fill="black"/>
</svg>
