<svg width="19" height="18" viewBox="0 0 19 18" fill="none" xmlns="http://www.w3.org/2000/svg">
<path d="M9.98535 11.6812C9.88535 11.6812 9.7916 11.6655 9.7041 11.634C9.6166 11.603 9.53535 11.55 9.46035 11.475L6.76035 8.775C6.62285 8.6375 6.5541 8.4625 6.5541 8.25C6.5541 8.0375 6.62285 7.8625 6.76035 7.725C6.89785 7.5875 7.07585 7.5155 7.29435 7.509C7.51335 7.503 7.6916 7.56875 7.8291 7.70625L9.23535 9.1125V3.75C9.23535 3.5375 9.30735 3.35925 9.45135 3.21525C9.59485 3.07175 9.77285 3 9.98535 3C10.1979 3 10.3761 3.07175 10.5201 3.21525C10.6636 3.35925 10.7354 3.5375 10.7354 3.75V9.1125L12.1416 7.70625C12.2791 7.56875 12.4574 7.503 12.6764 7.509C12.8949 7.5155 13.0729 7.5875 13.2104 7.725C13.3479 7.8625 13.4166 8.0375 13.4166 8.25C13.4166 8.4625 13.3479 8.6375 13.2104 8.775L10.5104 11.475C10.4354 11.55 10.3541 11.603 10.2666 11.634C10.1791 11.6655 10.0854 11.6812 9.98535 11.6812ZM5.48535 15C5.07285 15 4.71985 14.8532 4.42635 14.5597C4.13235 14.2657 3.98535 13.9125 3.98535 13.5V12C3.98535 11.7875 4.0571 11.6093 4.2006 11.4653C4.3446 11.3217 4.52285 11.25 4.73535 11.25C4.94785 11.25 5.1261 11.3217 5.2701 11.4653C5.4136 11.6093 5.48535 11.7875 5.48535 12V13.5H14.4854V12C14.4854 11.7875 14.5574 11.6093 14.7014 11.4653C14.8449 11.3217 15.0229 11.25 15.2354 11.25C15.4479 11.25 15.6259 11.3217 15.7694 11.4653C15.9134 11.6093 15.9854 11.7875 15.9854 12V13.5C15.9854 13.9125 15.8386 14.2657 15.5451 14.5597C15.2511 14.8532 14.8979 15 14.4854 15H5.48535Z" fill="#5C0F87"/>
</svg>
