<svg width="12" height="13" viewBox="0 0 12 13" fill="none" xmlns="http://www.w3.org/2000/svg">
<g clip-path="url(#clip0_1466_24585)">
<path d="M1.4847 11.3024L1.46116 11.3L1.43749 11.2999C1.40969 11.2997 1.38228 11.2934 1.35725 11.2812C1.33222 11.2691 1.31023 11.2516 1.29286 11.2298C1.27549 11.2081 1.26319 11.1828 1.25686 11.1557C1.25069 11.1294 1.25034 11.102 1.25582 11.0754L1.85595 8.48538L6.66176 3.67348L8.89962 5.90628L4.07623 10.7114L1.5053 11.3035C1.49843 11.3035 1.49155 11.3031 1.4847 11.3024Z" stroke="#292929"/>
<path d="M10.9171 3.62753L10.9171 3.62753L10.9186 3.62904C10.9363 3.64663 10.9504 3.66754 10.9601 3.69058C10.9697 3.71362 10.9748 3.73834 10.9748 3.76332C10.9749 3.7883 10.9701 3.81305 10.9606 3.83616C10.9511 3.85915 10.9373 3.88006 10.9198 3.89771C10.9197 3.8978 10.9196 3.89789 10.9195 3.89798L10.1806 4.63687L7.94441 2.40064L8.6833 1.66176C8.6834 1.66165 8.6835 1.66155 8.6836 1.66145C8.71918 1.62622 8.76723 1.60645 8.8173 1.60645C8.86738 1.60645 8.91543 1.62621 8.951 1.66144C8.9511 1.66155 8.95121 1.66165 8.95131 1.66176L10.9171 3.62753Z" stroke="#292929"/>
</g>
<defs>
<clipPath id="clip0_1466_24585">
<rect width="12" height="12" fill="white" transform="translate(0 0.5)"/>
</clipPath>
</defs>
</svg>
