<svg width="16" height="16" viewBox="0 0 16 16" fill="none" xmlns="http://www.w3.org/2000/svg">
<path d="M2.66732 13.3334C2.30065 13.3334 1.98665 13.2027 1.72532 12.9414C1.46399 12.6801 1.33354 12.3663 1.33399 12.0001V4.00008C1.33399 3.63342 1.46465 3.31942 1.72599 3.05808C1.98732 2.79675 2.3011 2.6663 2.66732 2.66675H13.334C13.7007 2.66675 14.0147 2.79742 14.276 3.05875C14.5373 3.32008 14.6678 3.63386 14.6673 4.00008V12.0001C14.6673 12.3667 14.5367 12.6807 14.2753 12.9421C14.014 13.2034 13.7002 13.3339 13.334 13.3334H2.66732ZM8.00065 8.66675L13.334 5.33342V4.00008L8.00065 7.33342L2.66732 4.00008V5.33342L8.00065 8.66675Z" fill="#464646"/>
</svg>
