<svg width="14" height="14" viewBox="0 0 14 14" fill="none" xmlns="http://www.w3.org/2000/svg">
<path d="M2.33268 11.6666C2.01185 11.6666 1.7371 11.5523 1.50843 11.3236C1.27977 11.0949 1.16563 10.8204 1.16602 10.4999V3.49992C1.16602 3.17909 1.28035 2.90434 1.50902 2.67567C1.73768 2.447 2.01224 2.33286 2.33268 2.33325H11.666C11.9869 2.33325 12.2616 2.44759 12.4903 2.67625C12.7189 2.90492 12.8331 3.17948 12.8327 3.49992V10.4999C12.8327 10.8208 12.7184 11.0955 12.4897 11.3242C12.261 11.5528 11.9865 11.667 11.666 11.6666H2.33268ZM6.99935 7.58325L2.33268 4.66659V10.4999H11.666V4.66659L6.99935 7.58325ZM6.99935 6.41659L11.666 3.49992H2.33268L6.99935 6.41659ZM2.33268 4.66659V3.49992V10.4999V4.66659Z" fill="#BCBCBC"/>
</svg>
