<svg width="24" height="25" viewBox="0 0 24 25" fill="none" xmlns="http://www.w3.org/2000/svg">
<path fill-rule="evenodd" clip-rule="evenodd" d="M10.386 9.13206C10.1543 8.99304 9.86573 8.9894 9.6306 9.12253C9.39547 9.25566 9.25012 9.50497 9.25012 9.77518V15.7752C9.25012 16.0454 9.39547 16.2947 9.6306 16.4278C9.86573 16.561 10.1543 16.5573 10.386 16.4183L15.386 13.4183C15.6119 13.2828 15.7501 13.0386 15.7501 12.7752C15.7501 12.5117 15.6119 12.2676 15.386 12.1321L10.386 9.13206ZM13.5424 12.7752L10.7501 14.4505V11.0998L13.5424 12.7752Z" fill="#BCBCBC"/>
<path fill-rule="evenodd" clip-rule="evenodd" d="M17.0308 5.41646C13.6821 5.15448 10.3182 5.15447 6.96951 5.41646L4.72881 5.59176C3.36624 5.69836 2.25155 6.71956 2.02632 8.06761C1.50555 11.1844 1.50555 14.366 2.02632 17.4827C2.25155 18.8308 3.36624 19.852 4.72881 19.9586L6.96951 20.1339C10.3182 20.3959 13.6821 20.3959 17.0308 20.1339L19.2715 19.9586C20.6341 19.852 21.7488 18.8308 21.974 17.4827C22.4948 14.366 22.4948 11.1844 21.974 8.06761C21.7488 6.71956 20.6341 5.69836 19.2715 5.59176L17.0308 5.41646ZM7.0865 6.91189C10.3573 6.656 13.643 6.656 16.9138 6.91189L19.1545 7.08719C19.8301 7.14005 20.3828 7.6464 20.4945 8.31481C20.9879 11.2679 20.9879 14.2824 20.4945 17.2355C20.3828 17.904 19.8301 18.4103 19.1545 18.4632L16.9138 18.6385C13.643 18.8944 10.3573 18.8944 7.0865 18.6385L4.8458 18.4632C4.17019 18.4103 3.61749 17.904 3.50581 17.2355C3.01239 14.2824 3.01239 11.2679 3.50581 8.31481C3.61749 7.6464 4.17019 7.14005 4.8458 7.08719L7.0865 6.91189Z" fill="#BCBCBC"/>
</svg>
