<svg width="24" height="25" viewBox="0 0 24 25" fill="none" xmlns="http://www.w3.org/2000/svg">
<path fill-rule="evenodd" clip-rule="evenodd" d="M5 2.02515C3.48122 2.02515 2.25 3.25636 2.25 4.77515C2.25 6.29393 3.48122 7.52515 5 7.52515C6.51878 7.52515 7.75 6.29393 7.75 4.77515C7.75 3.25636 6.51878 2.02515 5 2.02515ZM3.75 4.77515C3.75 4.08479 4.30964 3.52515 5 3.52515C5.69036 3.52515 6.25 4.08479 6.25 4.77515C6.25 5.4655 5.69036 6.02515 5 6.02515C4.30964 6.02515 3.75 5.4655 3.75 4.77515Z" fill="#BCBCBC"/>
<path fill-rule="evenodd" clip-rule="evenodd" d="M2.25 8.77515C2.25 8.36093 2.58579 8.02515 3 8.02515H7C7.41421 8.02515 7.75 8.36093 7.75 8.77515V21.7751C7.75 22.1894 7.41421 22.5251 7 22.5251H3C2.58579 22.5251 2.25 22.1894 2.25 21.7751V8.77515ZM3.75 9.52515V21.0251H6.25V9.52515H3.75Z" fill="#BCBCBC"/>
<path fill-rule="evenodd" clip-rule="evenodd" d="M9.25 8.77515C9.25 8.36093 9.58579 8.02515 10 8.02515H14C14.4142 8.02515 14.75 8.36093 14.75 8.77515V9.20917L15.1853 9.02263C15.9336 8.70191 16.7339 8.50079 17.5433 8.42721C20.3182 8.17494 22.75 10.3555 22.75 13.1554V21.7751C22.75 22.1894 22.4142 22.5251 22 22.5251H18C17.5858 22.5251 17.25 22.1894 17.25 21.7751V14.7751C17.25 14.4436 17.1183 14.1257 16.8839 13.8913C16.6495 13.6568 16.3315 13.5251 16 13.5251C15.6685 13.5251 15.3505 13.6568 15.1161 13.8913C14.8817 14.1257 14.75 14.4436 14.75 14.7751V21.7751C14.75 22.1894 14.4142 22.5251 14 22.5251H10C9.58579 22.5251 9.25 22.1894 9.25 21.7751V8.77515ZM10.75 9.52515V21.0251H13.25V14.7751C13.25 14.0458 13.5397 13.3463 14.0555 12.8306C14.5712 12.3149 15.2707 12.0251 16 12.0251C16.7293 12.0251 17.4288 12.3149 17.9445 12.8306C18.4603 13.3463 18.75 14.0458 18.75 14.7751V21.0251H21.25V13.1554C21.25 11.251 19.589 9.74742 17.6791 9.92105C17.025 9.98051 16.3784 10.1432 15.7762 10.4013L14.2954 11.0359C14.0637 11.1352 13.7976 11.1115 13.5871 10.9727C13.3767 10.8339 13.25 10.5987 13.25 10.3466V9.52515H10.75Z" fill="#BCBCBC"/>
</svg>
