<svg width="18" height="18" viewBox="0 0 18 18" fill="none" xmlns="http://www.w3.org/2000/svg">
<g clip-path="url(#clip0_1835_78)">
<path d="M16.875 1.68538L12.3711 1.68539V0.564331C12.3711 0.25355 12.1193 0.00183105 11.8086 0.00183105C11.4978 0.00183105 11.2461 0.25355 11.2461 0.564331V1.68511H6.74606V0.564331C6.74606 0.25355 6.49434 0.00183105 6.18356 0.00183105C5.87278 0.00183105 5.62106 0.25355 5.62106 0.564331V1.68511H1.125C0.503719 1.68511 0 2.18883 0 2.81011V16.8726C0 17.4939 0.503719 17.9976 1.125 17.9976H16.875C17.4963 17.9976 18 17.4939 18 16.8726V2.81011C18 2.18909 17.4963 1.68538 16.875 1.68538ZM16.875 16.8726H1.125V2.81011H5.62106V3.37683C5.62106 3.68759 5.87278 3.93933 6.18356 3.93933C6.49434 3.93933 6.74606 3.68759 6.74606 3.37683V2.81039H11.2461V3.37711C11.2461 3.68789 11.4978 3.93961 11.8086 3.93961C12.1193 3.93961 12.3711 3.68789 12.3711 3.37711V2.81039H16.875V16.8726ZM12.9375 8.99788H14.0625C14.373 8.99788 14.625 8.74588 14.625 8.43538V7.31038C14.625 6.99988 14.373 6.74788 14.0625 6.74788H12.9375C12.627 6.74788 12.375 6.99988 12.375 7.31038V8.43538C12.375 8.74588 12.627 8.99788 12.9375 8.99788ZM12.9375 13.4976H14.0625C14.373 13.4976 14.625 13.2459 14.625 12.9351V11.8101C14.625 11.4996 14.373 11.2476 14.0625 11.2476H12.9375C12.627 11.2476 12.375 11.4996 12.375 11.8101V12.9351C12.375 13.2462 12.627 13.4976 12.9375 13.4976ZM9.5625 11.2476H8.4375C8.127 11.2476 7.875 11.4996 7.875 11.8101V12.9351C7.875 13.2459 8.127 13.4976 8.4375 13.4976H9.5625C9.873 13.4976 10.125 13.2459 10.125 12.9351V11.8101C10.125 11.4999 9.873 11.2476 9.5625 11.2476ZM9.5625 6.74788H8.4375C8.127 6.74788 7.875 6.99988 7.875 7.31038V8.43538C7.875 8.74588 8.127 8.99788 8.4375 8.99788H9.5625C9.873 8.99788 10.125 8.74588 10.125 8.43538V7.31038C10.125 6.99959 9.873 6.74788 9.5625 6.74788ZM5.0625 6.74788H3.9375C3.627 6.74788 3.375 6.99988 3.375 7.31038V8.43538C3.375 8.74588 3.627 8.99788 3.9375 8.99788H5.0625C5.373 8.99788 5.625 8.74588 5.625 8.43538V7.31038C5.625 6.99959 5.373 6.74788 5.0625 6.74788ZM5.0625 11.2476H3.9375C3.627 11.2476 3.375 11.4996 3.375 11.8101V12.9351C3.375 13.2459 3.627 13.4976 3.9375 13.4976H5.0625C5.373 13.4976 5.625 13.2459 5.625 12.9351V11.8101C5.625 11.4999 5.373 11.2476 5.0625 11.2476Z" fill="#1C1C1C"/>
</g>
<defs>
<clipPath id="clip0_1835_78">
<rect width="18" height="18" fill="white"/>
</clipPath>
</defs>
</svg>
