<svg width="24" height="25" viewBox="0 0 24 25" fill="none" xmlns="http://www.w3.org/2000/svg">
<path d="M15.9997 7.77513C15.9997 7.22285 16.4474 6.77513 16.9997 6.77513C17.552 6.77513 17.9997 7.22285 17.9997 7.77513C17.9997 8.32742 17.552 8.77513 16.9997 8.77513C16.4474 8.77513 15.9997 8.32742 15.9997 7.77513Z" fill="#BCBCBC"/>
<path fill-rule="evenodd" clip-rule="evenodd" d="M11.9997 8.02513C9.37634 8.02513 7.24969 10.1518 7.24969 12.7751C7.24969 15.3985 9.37634 17.5251 11.9997 17.5251C14.623 17.5251 16.7497 15.3985 16.7497 12.7751C16.7497 10.1518 14.623 8.02513 11.9997 8.02513ZM8.74969 12.7751C8.74969 10.9802 10.2048 9.52513 11.9997 9.52513C13.7946 9.52513 15.2497 10.9802 15.2497 12.7751C15.2497 14.5701 13.7946 16.0251 11.9997 16.0251C10.2048 16.0251 8.74969 14.5701 8.74969 12.7751Z" fill="#BCBCBC"/>
<path fill-rule="evenodd" clip-rule="evenodd" d="M17.2579 3.60815C13.7914 3.22071 10.208 3.22071 6.74146 3.60815C4.72941 3.83302 3.10507 5.41803 2.86852 7.44056C2.45398 10.9849 2.45398 14.5654 2.86852 18.1097C3.10507 20.1322 4.72941 21.7172 6.74146 21.9421C10.208 22.3296 13.7914 22.3296 17.2579 21.9421C19.27 21.7172 20.8943 20.1322 21.1309 18.1097C21.5454 14.5654 21.5454 10.9849 21.1309 7.44056C20.8943 5.41803 19.27 3.83302 17.2579 3.60815ZM6.90807 5.09886C10.2639 4.7238 13.7355 4.7238 17.0913 5.09886C18.4214 5.24752 19.4869 6.29714 19.641 7.61481C20.042 11.0433 20.042 14.5069 19.641 17.9354C19.4869 19.2531 18.4214 20.3027 17.0913 20.4514C13.7355 20.8265 10.2639 20.8265 6.90807 20.4514C5.57797 20.3027 4.51248 19.2531 4.35837 17.9354C3.95737 14.5069 3.95737 11.0433 4.35837 7.61481C4.51248 6.29714 5.57797 5.24752 6.90807 5.09886Z" fill="#BCBCBC"/>
</svg>
