<svg width="24" height="25" viewBox="0 0 24 25" fill="none" xmlns="http://www.w3.org/2000/svg">
<path fill-rule="evenodd" clip-rule="evenodd" d="M10.4877 4.56284C11.4723 3.57827 12.8076 3.02515 14.2 3.02515H16.9C17.3142 3.02515 17.65 3.36093 17.65 3.77515V7.37515C17.65 7.78936 17.3142 8.12515 16.9 8.12515H14.2C14.1602 8.12515 14.1221 8.14095 14.0939 8.16908C14.0658 8.19721 14.05 8.23536 14.05 8.27515V10.2251H16.9C17.131 10.2251 17.349 10.3316 17.4912 10.5136C17.6333 10.6956 17.6836 10.933 17.6276 11.157L16.7276 14.757C16.6441 15.0909 16.3442 15.3251 16 15.3251H14.05V21.7751C14.05 22.1894 13.7142 22.5251 13.3 22.5251H9.7C9.28579 22.5251 8.95 22.1894 8.95 21.7751V15.3251H7C6.58579 15.3251 6.25 14.9894 6.25 14.5751V10.9751C6.25 10.5609 6.58579 10.2251 7 10.2251H8.95V8.27515C8.95 6.88276 9.50312 5.5474 10.4877 4.56284ZM14.2 4.52515C13.2054 4.52515 12.2516 4.92023 11.5483 5.6235C10.8451 6.32676 10.45 7.28058 10.45 8.27515V10.9751C10.45 11.3894 10.1142 11.7251 9.7 11.7251H7.75V13.8251H9.7C10.1142 13.8251 10.45 14.1609 10.45 14.5751V21.0251H12.55V14.5751C12.55 14.1609 12.8858 13.8251 13.3 13.8251H15.4144L15.9394 11.7251H13.3C12.8858 11.7251 12.55 11.3894 12.55 10.9751V8.27515C12.55 7.83754 12.7238 7.41786 13.0333 7.10842C13.3427 6.79899 13.7624 6.62515 14.2 6.62515H16.15V4.52515H14.2Z" fill="#BCBCBC"/>
</svg>
