<svg width="24" height="25" viewBox="0 0 24 25" fill="none" xmlns="http://www.w3.org/2000/svg">
<path fill-rule="evenodd" clip-rule="evenodd" d="M15.0215 4.11861C15.5299 4.03153 16.0992 4.00245 16.635 4.09309C17.5918 4.25498 18.4757 4.6997 19.1744 5.36646C19.6311 5.37679 20.0799 5.28682 20.477 5.15856C20.8131 5.05001 21.097 4.91893 21.296 4.8153C21.3949 4.76377 21.4713 4.71981 21.521 4.69005C21.5458 4.67519 21.5638 4.66395 21.5745 4.65716L21.5841 4.6511C21.8809 4.45337 22.2761 4.49185 22.529 4.74336C22.7819 4.99492 22.8226 5.38984 22.6264 5.68774C22.4187 6.00304 22.1303 6.56511 21.8073 7.19487C21.7565 7.29389 21.7048 7.39458 21.6525 7.49625C21.4672 7.85621 21.2772 8.22003 21.1001 8.53216C20.9889 8.72815 20.87 8.92712 20.7501 9.09906V9.37284C20.7577 10.3785 20.6424 11.3789 20.4083 12.3521C20.261 12.9644 20.0667 13.566 19.8265 14.1514C19.2041 15.668 18.2857 17.0455 17.1249 18.2032C15.9642 19.361 14.5844 20.2759 13.0662 20.8944C11.5492 21.5124 9.9245 21.8222 8.28665 21.8057C5.91234 21.8078 3.58798 21.1237 1.59326 19.8358C1.29945 19.6461 1.17576 19.2785 1.29509 18.9498C1.41443 18.6211 1.74512 18.4185 2.09219 18.4614C2.39255 18.4986 2.69496 18.5167 2.99762 18.5157C4.08507 18.5127 5.15181 18.2724 6.12567 17.8198C5.81612 17.6789 5.52058 17.5051 5.24443 17.3003C4.43271 16.6984 3.8288 15.8585 3.51673 14.8973C3.43564 14.6476 3.49108 14.3736 3.66289 14.175C3.66597 14.1715 3.66908 14.1679 3.67221 14.1645C3.48869 14.0008 3.31696 13.8226 3.15886 13.631C2.44754 12.7688 2.05587 11.6873 2.05009 10.5696L2.05007 10.5657L2.05008 10.5157C2.05008 10.2499 2.19083 10.0039 2.42003 9.86915C2.47813 9.835 2.53972 9.8093 2.60307 9.79205C2.26473 9.11697 2.08879 8.37153 2.09007 7.61527C2.08968 6.7585 2.31347 5.91653 2.73923 5.17303C2.86214 4.9584 3.08297 4.81816 3.3295 4.79818C3.57603 4.77821 3.81656 4.88106 3.97242 5.07311C4.93498 6.25912 6.13626 7.22937 7.49825 7.92084C8.19839 8.2763 8.93294 8.554 9.68874 8.75043C10.1125 8.86056 10.5429 8.94515 10.9777 9.00357C10.9585 8.28032 11.1013 7.55745 11.4011 6.88951C11.8407 5.90969 12.5932 5.10351 13.5404 4.59742C13.9416 4.38309 14.4741 4.21238 15.0215 4.11861ZM3.74335 11.6661C3.873 12.031 4.06586 12.3733 4.31592 12.6764C4.80724 13.272 5.48919 13.6795 6.24641 13.8301C6.58369 13.8972 6.83213 14.1851 6.84916 14.5286C6.86618 14.8721 6.64743 15.1831 6.31843 15.2832C6.04594 15.3662 5.76676 15.424 5.48441 15.456C5.67099 15.6965 5.89047 15.912 6.13787 16.0954C6.69906 16.5116 7.376 16.7424 8.07451 16.7559C8.39143 16.762 8.6703 16.9667 8.77112 17.2672C8.87195 17.5677 8.77296 17.8991 8.52386 18.0951C7.47469 18.9207 6.26149 19.4963 4.97594 19.7902C6.04142 20.1314 7.15887 20.3071 8.28916 20.3057L8.29786 20.3057C9.73792 20.3207 11.1665 20.0486 12.5002 19.5052C13.8339 18.9619 15.046 18.1582 16.0656 17.1412C17.0853 16.1242 17.892 14.9142 18.4388 13.5819C18.6498 13.0677 18.8205 12.5392 18.9499 12.0013C19.1557 11.1455 19.257 10.2659 19.2501 9.3816L19.2501 9.37573V8.84573C19.2501 8.66388 19.3161 8.48822 19.436 8.35145C19.5053 8.27241 19.6264 8.08985 19.7955 7.79195C19.9561 7.50882 20.1339 7.16892 20.3188 6.80973C20.33 6.78801 20.3412 6.76618 20.3525 6.74424C19.8729 6.84839 19.3293 6.90297 18.7595 6.84139C18.579 6.82189 18.4118 6.7376 18.2887 6.60416C17.7858 6.05882 17.1162 5.69582 16.3848 5.57208C16.0602 5.51717 15.6679 5.52974 15.2748 5.59708C14.8477 5.67024 14.476 5.79825 14.2473 5.92042C13.593 6.26999 13.0733 6.82684 12.7696 7.50362C12.4659 8.18041 12.3954 8.93886 12.5692 9.66001C12.6246 9.88993 12.5683 10.1325 12.4174 10.3145C12.2664 10.4966 12.0384 10.5967 11.8022 10.5848C10.9588 10.5421 10.1243 10.4135 9.31142 10.2022C8.45152 9.97871 7.61579 9.66276 6.81921 9.25834C5.64643 8.66293 4.57838 7.88584 3.65354 6.95815C3.61135 7.17376 3.58993 7.39379 3.59008 7.61524L3.59007 7.61716C3.58903 8.16787 3.72418 8.7103 3.98349 9.19615C4.2428 9.682 4.61822 10.0962 5.07633 10.4019C5.35436 10.5873 5.47608 10.9344 5.37483 11.2529C5.27358 11.5715 4.97378 11.7845 4.63968 11.7755C4.33708 11.7672 4.03702 11.7304 3.74335 11.6661Z" fill="#BCBCBC"/>
</svg>
