<svg width="660" height="559" viewBox="0 0 660 559" fill="none" xmlns="http://www.w3.org/2000/svg">
<path d="M750.631 514.408H750.64C767.729 514.105 781.337 510.196 791.555 502.522C801.779 494.843 808.554 483.437 812.051 468.249L811.563 468.137L812.051 468.249C817.289 445.476 814.733 416.3 804.624 383.669C794.512 351.031 776.834 314.9 751.782 278.198C701.677 204.795 622.056 129.078 514.406 74.425L514.179 74.8708L514.406 74.4249C410.804 21.8676 323.619 45.1688 276.525 84.5727L276.525 84.5731C230.38 123.269 213.717 182.705 232.006 243.674L232.485 243.53L232.006 243.674C243.464 281.836 264.076 307.278 285.914 324.221L286.304 324.524L286.611 324.137C323.467 277.853 361.315 241.715 409.446 241.509H409.794C451.438 241.509 487.756 266.961 522.824 303.321L489.543 331.518C476.17 317.884 462.802 306.291 449.541 298.085C436.174 289.813 422.887 284.966 409.794 284.966H409.596H409.595C395.208 285.02 381.077 291.58 367.039 302.426C353 313.272 339.009 328.44 324.895 345.788L324.466 346.316L325.097 346.568C332.684 349.602 339.793 351.833 345.964 353.449C396.488 366.695 451.249 358.304 489.429 332.857L518.634 365.329C469.983 400.122 399.307 412.322 335.044 395.48L335.043 395.479C321.875 392.056 309.355 387.528 297.562 381.95L297.193 381.775L296.948 382.103C294.114 385.894 291.306 389.668 288.481 393.496C287.442 394.895 286.405 396.299 285.366 397.706C283.072 400.811 280.766 403.931 278.408 407.053L278.016 407.572L278.619 407.817C279.726 408.268 280.83 408.717 281.942 409.184L281.948 409.187C361.832 441.541 444.499 475.019 579.974 441.157L580.735 440.967L580.241 440.357C571.741 429.869 563.277 419.236 554.875 408.602L554.875 408.601C543.357 394.077 531.72 379.406 520.107 365.502L520.124 365.49L520.094 365.457L553.101 337.241C564.552 350.968 576.004 365.38 587.587 379.958L588.889 381.596L750.631 514.408ZM750.631 514.408H749.47C717.155 514.408 685.557 491.479 654.685 459.515L654.241 459.056L654.794 458.735C692.709 436.77 715.902 404.939 719.258 368.291L719.258 368.291C722.963 328.274 701.969 291.175 665.804 273.823L666.02 273.372L665.804 273.823C623.965 253.732 572.275 264.801 524.277 303.417L553.208 335.834M750.631 514.408L553.208 335.834M553.208 335.834L553.22 335.823L553.232 335.837C586.959 309.21 621.106 300.572 647.056 312.992L647.056 312.993C666.677 322.421 678.07 342.565 676.036 364.303L553.208 335.834ZM248.721 51.2653L248.72 51.2654C188.804 101.431 166.994 177.986 190.447 256.137L189.968 256.281L190.447 256.138C203.067 298.238 227.128 333.34 259.619 358.667L260.002 358.966L259.716 359.357C259.417 359.765 259.118 360.174 258.818 360.584C257.114 362.912 255.392 365.266 253.632 367.627C247.892 375.389 242.089 383.206 236.258 390.969L236.037 391.264L235.689 391.139C184.719 372.814 132.915 361.798 70.0535 379.156C35.658 388.674 10.4954 416.647 2.7843 453.929L2.78427 453.929C-4.49036 489.063 5.90315 522.834 29.7504 542.1C38.785 549.364 54.7001 558.333 78.485 558.333C93.1143 558.333 110.705 554.921 131.558 545.661C178.685 524.694 216.795 485.404 250.312 443.628L250.543 443.34L250.886 443.476C255.774 445.404 260.724 447.413 265.655 449.43C265.655 449.43 265.655 449.43 265.655 449.43L265.826 449.5C350.359 483.708 446.045 522.429 601.737 480.36C605.061 479.451 608.374 478.499 611.587 477.493L611.891 477.397L612.106 477.633C653.443 523.034 697.72 557.864 749.416 557.864C750.076 557.864 750.707 557.864 751.353 557.821L751.366 557.82L751.378 557.82C778.405 557.366 801.281 549.855 818.824 536.247C836.366 522.639 848.609 502.909 854.331 477.957L854.818 478.069L854.331 477.957C867.78 419.534 843.451 336.522 789.09 255.957C729.055 166.914 638.484 88.6898 534.06 35.6956C431.564 -16.3019 322.204 -10.3317 248.721 51.2653ZM57.0205 508.3L57.02 508.3C46.0992 499.468 41.4658 481.164 45.2665 462.75L45.2666 462.749C49.626 441.776 63.1923 426.128 81.6265 421.037L81.6269 421.037C99.3927 416.144 116.207 414.004 132.472 414.004C158.119 414.004 182.4 419.269 206.855 427.184L207.559 427.412L207.085 427.98C179.272 461.325 149.146 490.329 113.945 505.954C89.2364 516.954 68.9425 517.918 57.0205 508.3Z" stroke="#2E2A05"/>
</svg>
