<svg width="89" height="317" viewBox="0 0 89 317" fill="none" xmlns="http://www.w3.org/2000/svg">
<path d="M158.508 317C71.109 317 0 245.895 0 158.5C0 71.1052 71.109 0 158.508 0V1.97616C72.1987 1.97616 1.99475 72.1949 1.99475 158.482C1.99475 244.787 72.2172 314.987 158.508 314.987C184.588 314.987 210.409 308.449 233.164 296.075L234.106 297.811C211.055 310.388 184.902 317 158.508 317Z" fill="#FAF0FF"/>
<path d="M83.5013 280.505C40.799 254.206 15.3105 208.588 15.3105 158.5H19.2816C19.2816 207.202 44.0681 251.546 85.5884 277.126L83.5013 280.505Z" fill="#FAF0FF"/>
<path d="M295.963 136.263C290.773 103.961 274.188 74.3553 249.235 52.9129C224.023 31.2304 191.793 19.2995 158.511 19.2995C131.637 19.2995 105.558 26.9641 83.0798 41.4807C56.8895 58.3982 36.9051 83.8852 26.8021 113.251L23.0527 111.958C33.4328 81.7613 53.9898 55.5539 80.9188 38.1562C104.043 23.2334 130.861 15.3472 158.492 15.3472C192.735 15.3472 225.87 27.629 251.802 49.9209C277.457 71.9728 294.523 102.428 299.861 135.654L295.963 136.263Z" fill="#FAF0FF"/>
<path d="M158.509 261.925C101.474 261.925 55.0781 215.532 55.0781 158.5C55.0781 135.414 62.5215 113.583 76.577 95.373L79.7169 97.7925C66.197 115.319 59.0491 136.3 59.0491 158.5C59.0491 213.334 103.672 257.955 158.509 257.955C168.243 257.955 177.866 256.551 187.082 253.781L188.227 257.585C178.623 260.485 168.612 261.925 158.509 261.925Z" fill="#FAF0FF"/>
<path d="M97.9482 219.097C81.7686 202.919 72.8477 181.403 72.8477 158.52C72.8477 111.295 111.265 72.8608 158.511 72.8608C205.738 72.8608 244.174 111.295 244.174 158.52H242.198C242.198 112.384 204.667 74.8555 158.529 74.8555C112.392 74.8555 74.8609 112.384 74.8609 158.52C74.8609 180.867 83.5602 201.885 99.3888 217.694L97.9482 219.097Z" fill="#FAF0FF"/>
</svg>
