<svg width="91" height="318" viewBox="0 0 91 318" fill="none" xmlns="http://www.w3.org/2000/svg">
<path d="M58.2265 255.002L56.6534 253.799C77.5845 226.317 88.6515 193.486 88.6515 158.841C88.6515 105.172 61.6502 55.7964 16.4199 26.7594L17.4933 25.0938C63.2974 54.4823 90.6317 104.487 90.6317 158.841C90.6317 193.912 79.4166 227.168 58.2265 255.002Z" fill="#FAF0FF"/>
<path d="M-68.1757 317.648C-155.749 317.648 -227 246.398 -227 158.824C-227 71.2507 -155.749 0 -68.1757 0V1.9802C-154.657 1.9802 -225.001 72.3425 -225.001 158.806C-225.001 245.287 -154.639 315.631 -68.1757 315.631C-42.0443 315.631 -16.172 309.08 6.6282 296.68L7.57205 298.42C-15.5243 311.023 -41.7297 317.648 -68.1757 317.648Z" fill="#FAF0FF"/>
<path d="M-68.1768 302.324C-83.9075 302.324 -99.3606 299.789 -114.129 294.811L-112.852 291.054C-98.4908 295.902 -83.4634 298.364 -68.1584 298.364C3.70303 298.364 63.3871 244.528 70.6232 173.129L74.5836 173.536C67.1069 246.934 5.73879 302.324 -68.1768 302.324Z" fill="#FAF0FF"/>
<path d="M69.5522 136.542C64.3518 104.174 47.7329 74.5075 22.7304 53.0213C-2.53123 31.2944 -34.8254 19.3391 -68.1744 19.3391C-95.1016 19.3391 -121.233 27.0194 -143.756 41.5656C-169.998 58.5177 -190.022 84.0569 -200.145 113.483L-203.902 112.187C-193.502 81.9287 -172.904 55.6677 -145.921 38.2344C-122.751 23.281 -95.8789 15.3787 -68.1929 15.3787C-33.8815 15.3787 -0.680603 27.6856 25.3028 50.0231C51.0085 72.1201 68.1087 102.638 73.4572 135.931L69.5522 136.542Z" fill="#FAF0FF"/>
<path d="M1.81826 235.257L-0.865234 232.333C19.6957 213.493 31.4844 186.714 31.4844 158.843C31.4844 139.226 25.7843 120.238 15.0135 103.934L18.3262 101.75C29.5412 118.702 35.4634 138.449 35.4634 158.862C35.4449 187.825 23.1935 215.677 1.81826 235.257Z" fill="#FAF0FF"/>
<path d="M-68.1733 244.657C-82.1273 244.657 -95.9888 241.234 -108.24 234.756L-107.315 232.998C-95.3411 239.328 -81.8127 242.677 -68.1918 242.677C-30.5677 242.677 2.67023 217.379 12.6453 181.143L14.5515 181.679C4.37284 218.767 -29.6609 244.657 -68.1733 244.657Z" fill="#FAF0FF"/>
<path d="M-128.855 219.545C-145.067 203.333 -154.006 181.773 -154.006 158.843C-154.006 111.522 -115.512 73.0095 -68.1719 73.0095C-20.8504 73.0095 17.662 111.522 17.662 158.843H15.6818C15.6818 112.614 -21.9238 75.0082 -68.1535 75.0082C-114.383 75.0082 -151.989 112.614 -151.989 158.843C-151.989 181.237 -143.272 202.297 -127.412 218.139L-128.855 219.545Z" fill="#FAF0FF"/>
</svg>
