<svg width="12" height="12" viewBox="0 0 12 12" fill="none" xmlns="http://www.w3.org/2000/svg">
<path d="M11.0741 4.82812H8.07412C8.02256 4.82812 7.98037 4.87031 7.98037 4.92188V5.48438C7.98037 5.53594 8.02256 5.57812 8.07412 5.57812H11.0741C11.1257 5.57812 11.1679 5.53594 11.1679 5.48438V4.92188C11.1679 4.87031 11.1257 4.82812 11.0741 4.82812ZM9.50381 6.42188H8.07412C8.02256 6.42188 7.98037 6.46406 7.98037 6.51562V7.07812C7.98037 7.12969 8.02256 7.17188 8.07412 7.17188H9.50381C9.55537 7.17188 9.59756 7.12969 9.59756 7.07812V6.51562C9.59756 6.46406 9.55537 6.42188 9.50381 6.42188ZM5.59326 3.7793H5.08584C5.01318 3.7793 4.95459 3.83789 4.95459 3.91055V6.8168C4.95459 6.85898 4.97451 6.89766 5.0085 6.92227L6.75342 8.19492C6.81201 8.23711 6.89404 8.22539 6.93623 8.1668L7.2374 7.75547V7.7543C7.27959 7.6957 7.2667 7.61367 7.20811 7.57148L5.72334 6.49805V3.91055C5.72451 3.83789 5.66475 3.7793 5.59326 3.7793Z" fill="#5A5A5A"/>
<path d="M9.43126 7.89718H8.75391C8.68829 7.89718 8.62618 7.93117 8.59102 7.98742C8.44219 8.22296 8.26876 8.44093 8.06954 8.64015C7.72618 8.98351 7.32657 9.25304 6.88243 9.44054C6.42188 9.63507 5.93321 9.73351 5.4293 9.73351C4.92423 9.73351 4.43555 9.63507 3.97618 9.44054C3.53204 9.25304 3.13243 8.98351 2.78907 8.64015C2.44571 8.29679 2.17618 7.89718 1.98868 7.45304C1.79415 6.99367 1.69571 6.505 1.69571 5.99992C1.69571 5.49484 1.79415 5.00734 1.98868 4.54679C2.17618 4.10265 2.44571 3.70304 2.78907 3.35968C3.13243 3.01632 3.53204 2.74679 3.97618 2.55929C4.43555 2.36476 4.9254 2.26632 5.4293 2.26632C5.93438 2.26632 6.42305 2.36476 6.88243 2.55929C7.32657 2.74679 7.72618 3.01632 8.06954 3.35968C8.26876 3.5589 8.44219 3.77687 8.59102 4.01242C8.62618 4.06867 8.68829 4.10265 8.75391 4.10265H9.43126C9.51212 4.10265 9.56368 4.01828 9.52735 3.94679C8.76329 2.42687 7.21407 1.43898 5.48438 1.41906C2.95196 1.38742 0.848446 3.46047 0.843758 5.99054C0.839071 8.52531 2.89337 10.5819 5.42813 10.5819C7.18009 10.5819 8.75509 9.59054 9.52735 8.05304C9.56368 7.98156 9.51094 7.89718 9.43126 7.89718Z" fill="#5A5A5A"/>
</svg>
