<svg width="105" height="105" viewBox="0 0 105 105" fill="none" xmlns="http://www.w3.org/2000/svg">
<path d="M52.5 96.25C46.4479 96.25 40.7604 95.1008 35.4375 92.8025C30.1146 90.5071 25.4844 87.3906 21.5469 83.4531C17.6094 79.5156 14.4929 74.8854 12.1975 69.5625C9.89917 64.2396 8.75 58.5521 8.75 52.5C8.75 46.4479 9.89917 40.7604 12.1975 35.4375C14.4929 30.1146 17.6094 25.4844 21.5469 21.5469C25.4844 17.6094 30.1146 14.4915 35.4375 12.1931C40.7604 9.89771 46.4479 8.75 52.5 8.75C63.1458 8.75 72.4602 12.0852 80.4431 18.7556C88.429 25.429 93.4063 33.7969 95.375 43.8594H86.4063C85.0208 38.5365 82.5242 33.7779 78.9163 29.5837C75.3054 25.3925 70.875 22.2396 65.625 20.125V21.875C65.625 24.2812 64.769 26.3404 63.0569 28.0525C61.3419 29.7675 59.2813 30.625 56.875 30.625H48.125V39.375C48.125 40.6146 47.7065 41.6529 46.8694 42.49C46.0294 43.33 44.9896 43.75 43.75 43.75H35V52.5H43.75V65.625H39.375L18.375 44.625C18.1562 45.9375 17.955 47.25 17.7712 48.5625C17.5904 49.875 17.5 51.1875 17.5 52.5C17.5 62.0521 20.8542 70.2552 27.5625 77.1094C34.2708 83.9635 42.5833 87.4271 52.5 87.5V96.25ZM92.3125 94.0625L78.3125 80.0625C76.7813 80.9375 75.1406 81.6667 73.3906 82.25C71.6406 82.8333 69.7813 83.125 67.8125 83.125C62.3438 83.125 57.6946 81.2117 53.865 77.385C50.0383 73.5554 48.125 68.9062 48.125 63.4375C48.125 57.9687 50.0383 53.3196 53.865 49.49C57.6946 45.6633 62.3438 43.75 67.8125 43.75C73.2813 43.75 77.9304 45.6633 81.76 49.49C85.5867 53.3196 87.5 57.9687 87.5 63.4375C87.5 65.4062 87.2083 67.2656 86.625 69.0156C86.0417 70.7656 85.3125 72.4062 84.4375 73.9375L98.4375 87.9375L92.3125 94.0625ZM67.8125 74.375C70.875 74.375 73.4635 73.3177 75.5781 71.2031C77.6927 69.0885 78.75 66.5 78.75 63.4375C78.75 60.375 77.6927 57.7865 75.5781 55.6719C73.4635 53.5573 70.875 52.5 67.8125 52.5C64.75 52.5 62.1615 53.5573 60.0469 55.6719C57.9323 57.7865 56.875 60.375 56.875 63.4375C56.875 66.5 57.9323 69.0885 60.0469 71.2031C62.1615 73.3177 64.75 74.375 67.8125 74.375Z" fill="black"/>
</svg>
