<svg width="15" height="20" viewBox="0 0 15 20" fill="none" xmlns="http://www.w3.org/2000/svg">
<path d="M7.5 1.42857C8.24168 1.42857 8.9667 1.63803 9.58339 2.03047C10.2001 2.4229 10.6807 2.98068 10.9645 3.63327C11.2484 4.28587 11.3226 5.00396 11.1779 5.69675C11.0333 6.38954 10.6761 7.02591 10.1517 7.52538C9.6272 8.02485 8.95902 8.365 8.23159 8.5028C7.50416 8.64061 6.75016 8.56988 6.06494 8.29957C5.37971 8.02926 4.79404 7.5715 4.38199 6.98418C3.96993 6.39686 3.75 5.70636 3.75 5C3.75 4.0528 4.14509 3.14439 4.84835 2.47462C5.55161 1.80485 6.50544 1.42857 7.5 1.42857ZM7.5 0C6.46165 0 5.44661 0.293245 4.58326 0.842652C3.7199 1.39206 3.04699 2.17295 2.64963 3.08658C2.25227 4.00021 2.14831 5.00555 2.35088 5.97545C2.55345 6.94536 3.05346 7.83627 3.78769 8.53553C4.52192 9.2348 5.45738 9.711 6.47578 9.90393C7.49418 10.0969 8.54978 9.99784 9.50909 9.6194C10.4684 9.24096 11.2883 8.6001 11.8652 7.77785C12.4421 6.95561 12.75 5.98891 12.75 5C12.75 3.67392 12.1969 2.40215 11.2123 1.46447C10.2277 0.526784 8.89239 0 7.5 0ZM15 20H13.5V16.4286C13.5 15.9596 13.403 15.4952 13.2145 15.0618C13.0261 14.6285 12.7499 14.2348 12.4017 13.9032C12.0534 13.5716 11.64 13.3085 11.1851 13.129C10.7301 12.9495 10.2425 12.8571 9.75 12.8571H5.25C4.25544 12.8571 3.30161 13.2334 2.59835 13.9032C1.89509 14.573 1.5 15.4814 1.5 16.4286V20H0V16.4286C0 15.1025 0.553124 13.8307 1.53769 12.893C2.52226 11.9554 3.85761 11.4286 5.25 11.4286H9.75C11.1424 11.4286 12.4777 11.9554 13.4623 12.893C14.4469 13.8307 15 15.1025 15 16.4286V20Z" fill="#B0B0B0"/>
</svg>
